{
  "accessors": [
    {
      "bufferView": 2,
      "componentType": 5126,
      "count": 785,
      "max": [
        0.571308970451355,
        1.2572729587554932,
        0.6973320245742798
      ],
      "min": [
        -0.6160290241241455,
        -1.3630620241165161,
        0.06624399870634079
      ],
      "type": "VEC3"
    },
    {
      "bufferView": 2,
      "byteOffset": 9420,
      "componentType": 5126,
      "count": 785,
      "max": [
        0.9998374581336975,
        0.9998099207878113,
        0.9997667670249939
      ],
      "min": [
        -0.9998374581336975,
        -0.9995588660240173,
        -0.9996541142463684
      ],
      "type": "VEC3"
    },
    {
      "bufferView": 1,
      "componentType": 5126,
      "count": 785,
      "max": [
        0.1849599927663803,
        0.9879270195960999
      ],
      "min": [
        0.009171999990940094,
        0.020284000784158707
      ],
      "type": "VEC2"
    },
    {
      "bufferView": 0,
      "componentType": 5125,
      "count": 2250,
      "type": "SCALAR"
    },
    {
      "bufferView": 2,
      "byteOffset": 18840,
      "componentType": 5126,
      "count": 8,
      "max": [
        0.49661099910736084,
        -0.9750810265541077,
        0.3933750092983246
      ],
      "min": [
        -0.5413399934768677,
        -1.2162729501724243,
        0.2737489938735962
      ],
      "type": "VEC3"
    },
    {
      "bufferView": 2,
      "byteOffset": 18936,
      "componentType": 5126,
      "count": 8,
      "max": [
        0.2216867357492447,
        -0.5752655267715454,
        0.7873528599739075
      ],
      "min": [
        -0.2216867357492447,
        -0.5752655267715454,
        0.7873528599739075
      ],
      "type": "VEC3"
    },
    {
      "bufferView": 1,
      "byteOffset": 6280,
      "componentType": 5126,
      "count": 8,
      "max": [
        0.9599810242652893,
        0.7810750007629395
      ],
      "min": [
        0.8567050099372864,
        0.257191002368927
      ],
      "type": "VEC2"
    },
    {
      "bufferView": 0,
      "byteOffset": 9000,
      "componentType": 5125,
      "count": 12,
      "type": "SCALAR"
    },
    {
      "bufferView": 2,
      "byteOffset": 19032,
      "componentType": 5126,
      "count": 16,
      "max": [
        0.4974620044231415,
        1.19051194190979,
        0.5075520277023315
      ],
      "min": [
        -0.5421800017356873,
        1.0334769487380981,
        0.4250839948654175
      ],
      "type": "VEC3"
    },
    {
      "bufferView": 2,
      "byteOffset": 19224,
      "componentType": 5126,
      "count": 16,
      "max": [
        0.7477091550827026,
        0.8965862989425659,
        0.39851048588752747
      ],
      "min": [
        -0.7477091550827026,
        0.6607081294059753,
        -0.07530094683170319
      ],
      "type": "VEC3"
    },
    {
      "bufferView": 1,
      "byteOffset": 6344,
      "componentType": 5126,
      "count": 16,
      "max": [
        0.771344006061554,
        0.6167749762535095
      ],
      "min": [
        0.6324419975280762,
        0.28082600235939026
      ],
      "type": "VEC2"
    },
    {
      "bufferView": 0,
      "byteOffset": 9048,
      "componentType": 5125,
      "count": 36,
      "type": "SCALAR"
    },
    {
      "bufferView": 2,
      "byteOffset": 19416,
      "componentType": 5126,
      "count": 134,
      "max": [
        0.5294870138168335,
        1.227552056312561,
        0.6697720289230347
      ],
      "min": [
        -0.5741909742355347,
        -1.355288028717041,
        0.0703120008111
      ],
      "type": "VEC3"
    },
    {
      "bufferView": 2,
      "byteOffset": 21024,
      "componentType": 5126,
      "count": 134,
      "max": [
        0.9028170108795166,
        0.9100580215454102,
        0.9908314347267151
      ],
      "min": [
        -0.9028170108795166,
        -0.7540609240531921,
        -0.9885330200195313
      ],
      "type": "VEC3"
    },
    {
      "bufferView": 1,
      "byteOffset": 6472,
      "componentType": 5126,
      "count": 134,
      "max": [
        0.5900599956512451,
        0.9210180044174194
      ],
      "min": [
        0.0,
        0.0
      ],
      "type": "VEC2"
    },
    {
      "bufferView": 0,
      "byteOffset": 9192,
      "componentType": 5125,
      "count": 384,
      "type": "SCALAR"
    },
    {
      "bufferView": 2,
      "byteOffset": 22632,
      "componentType": 5126,
      "count": 992,
      "max": [
        0.5596020221710205,
        1.0136460065841675,
        0.4357280135154724
      ],
      "min": [
        -0.6003249883651733,
        -0.9564930200576782,
        -0.019776999950408936
      ],
      "type": "VEC3"
    },
    {
      "bufferView": 2,
      "byteOffset": 34536,
      "componentType": 5126,
      "count": 992,
      "max": [
        1.0,
        0.9996107220649719,
        0.9996107220649719
      ],
      "min": [
        -0.99998939037323,
        -0.9996107220649719,
        -0.9996107220649719
      ],
      "type": "VEC3"
    },
    {
      "bufferView": 1,
      "byteOffset": 7544,
      "componentType": 5126,
      "count": 992,
      "max": [
        0.5810649991035461,
        0.9431890249252319
      ],
      "min": [
        0.4351780116558075,
        0.056811001151800156
      ],
      "type": "VEC2"
    },
    {
      "bufferView": 0,
      "byteOffset": 10728,
      "componentType": 5125,
      "count": 3408,
      "type": "SCALAR"
    },
    {
      "bufferView": 2,
      "byteOffset": 46440,
      "componentType": 5126,
      "count": 1176,
      "max": [
        0.5487160086631775,
        0.9498590230941772,
        0.3773919939994812
      ],
      "min": [
        -0.5891609787940979,
        -0.8986430168151855,
        0.033132001757621765
      ],
      "type": "VEC3"
    },
    {
      "bufferView": 2,
      "byteOffset": 60552,
      "componentType": 5126,
      "count": 1176,
      "max": [
        1.0,
        0.9996107220649719,
        0.9996107220649719
      ],
      "min": [
        -1.0,
        -0.9996107220649719,
        -0.9996107220649719
      ],
      "type": "VEC3"
    },
    {
      "bufferView": 1,
      "byteOffset": 15480,
      "componentType": 5126,
      "count": 1176,
      "max": [
        0.39118900895118713,
        0.9329010248184204
      ],
      "min": [
        0.2181060016155243,
        0.06709899753332138
      ],
      "type": "VEC2"
    },
    {
      "bufferView": 0,
      "byteOffset": 24360,
      "componentType": 5125,
      "count": 2640,
      "type": "SCALAR"
    }
  ],
  "asset": {
    "extras": {
      "author": "Moonlight (https://sketchfab.com/moonlight2023)",
      "license": "CC-BY-4.0 (http://creativecommons.org/licenses/by/4.0/)",
      "source": "https://sketchfab.com/3d-models/free-italian-sport-car-cartoon-low-poly-39f13ab02d194dbcb5a983995767b663",
      "title": "FREE Italian Sport Car Cartoon (Low Poly)"
    },
    "generator": "Sketchfab-14.39.1",
    "version": "2.0"
  },
  "bufferViews": [
    {
      "buffer": 0,
      "byteLength": 34920,
      "name": "floatBufferViews",
      "target": 34963
    },
    {
      "buffer": 0,
      "byteLength": 24888,
      "byteOffset": 34920,
      "byteStride": 8,
      "name": "floatBufferViews",
      "target": 34962
    },
    {
      "buffer": 0,
      "byteLength": 74664,
      "byteOffset": 59808,
      "byteStride": 12,
      "name": "floatBufferViews",
      "target": 34962
    }
  ],
  "buffers": [
    {
      "byteLength": 134472,
      "uri": "scene.bin"
    }
  ],
  "images": [
    {
      "uri": "textures/Black.001_baseColor.jpeg"
    }
  ],
  "materials": [
    {
      "doubleSided": true,
      "name": "Black.001",
      "pbrMetallicRoughness": {
        "baseColorTexture": {
          "index": 0
        },
        "metallicFactor": 0.0
      }
    },
    {
      "doubleSided": true,
      "name": "material",
      "pbrMetallicRoughness": {
        "baseColorFactor": [
          0.8883809523809524,
          0.8883809523809524,
          0.8883809523809524,
          1.0
        ],
        "baseColorTexture": {
          "index": 0
        },
        "metallicFactor": 0.668952380952381
      }
    },
    {
      "doubleSided": true,
      "name": "Light",
      "pbrMetallicRoughness": {
        "baseColorTexture": {
          "index": 0
        },
        "metallicFactor": 0.0,
        "roughnessFactor": 0.8011823178082373
      }
    },
    {
      "doubleSided": true,
      "name": "Metal.001",
      "pbrMetallicRoughness": {
        "baseColorTexture": {
          "index": 0
        },
        "metallicFactor": 0.0,
        "roughnessFactor": 0.8061360246308452
      }
    },
    {
      "doubleSided": true,
      "name": "Red_Light",
      "pbrMetallicRoughness": {
        "baseColorTexture": {
          "index": 0
        },
        "metallicFactor": 0.0,
        "roughnessFactor": 0.8011823178082373
      }
    },
    {
      "doubleSided": true,
      "name": "Window",
      "pbrMetallicRoughness": {
        "baseColorTexture": {
          "index": 0
        },
        "metallicFactor": 0.4921904761904762,
        "roughnessFactor": 0.7188293374048255
      }
    }
  ],
  "meshes": [
    {
      "name": "Object_0",
      "primitives": [
        {
          "attributes": {
            "NORMAL": 1,
            "POSITION": 0,
            "TEXCOORD_0": 2
          },
          "indices": 3,
          "material": 1,
          "mode": 4
        }
      ]
    },
    {
      "name": "Object_1",
      "primitives": [
        {
          "attributes": {
            "NORMAL": 5,
            "POSITION": 4,
            "TEXCOORD_0": 6
          },
          "indices": 7,
          "material": 2,
          "mode": 4
        }
      ]
    },
    {
      "name": "Object_2",
      "primitives": [
        {
          "attributes": {
            "NORMAL": 9,
            "POSITION": 8,
            "TEXCOORD_0": 10
          },
          "indices": 11,
          "material": 4,
          "mode": 4
        }
      ]
    },
    {
      "name": "Object_3",
      "primitives": [
        {
          "attributes": {
            "NORMAL": 13,
            "POSITION": 12,
            "TEXCOORD_0": 14
          },
          "indices": 15,
          "material": 5,
          "mode": 4
        }
      ]
    },
    {
      "name": "Object_4",
      "primitives": [
        {
          "attributes": {
            "NORMAL": 17,
            "POSITION": 16,
            "TEXCOORD_0": 18
          },
          "indices": 19,
          "material": 0,
          "mode": 4
        }
      ]
    },
    {
      "name": "Object_5",
      "primitives": [
        {
          "attributes": {
            "NORMAL": 21,
            "POSITION": 20,
            "TEXCOORD_0": 22
          },
          "indices": 23,
          "material": 3,
          "mode": 4
        }
      ]
    }
  ],
  "nodes": [
    {
      "children": [
        1
      ],
      "matrix": [
        1.0,
        0.0,
        0.0,
        0.0,
        0.0,
        2.220446049250313e-16,
        -1.0,
        0.0,
        0.0,
        1.0,
        2.220446049250313e-16,
        0.0,
        0.0,
        0.0,
        0.0,
        1.0
      ],
      "name": "Sketchfab_model"
    },
    {
      "children": [
        2,
        3,
        4,
        5,
        6,
        7
      ],
      "name": "Sport Car.obj.cleaner.materialmerger.gles"
    },
    {
      "mesh": 0,
      "name": "Object_2"
    },
    {
      "mesh": 1,
      "name": "Object_3"
    },
    {
      "mesh": 2,
      "name": "Object_4"
    },
    {
      "mesh": 3,
      "name": "Object_5"
    },
    {
      "mesh": 4,
      "name": "Object_6"
    },
    {
      "mesh": 5,
      "name": "Object_7"
    }
  ],
  "samplers": [
    {
      "magFilter": 9729,
      "minFilter": 9987,
      "wrapS": 10497,
      "wrapT": 10497
    }
  ],
  "scene": 0,
  "scenes": [
    {
      "name": "Sketchfab_Scene",
      "nodes": [
        0
      ]
    }
  ],
  "textures": [
    {
      "sampler": 0,
      "source": 0
    }
  ]
}
